<svg width="25.121582" height="20.613037" viewBox="0 0 25.1216 20.613" fill="none" xmlns="http://www.w3.org/2000/svg" xmlns:xlink="http://www.w3.org/1999/xlink">
	<desc>
			Created with Pixso.
	</desc>
	<defs/>
	<path id="Vector" d="M13.793 12.6387L13.793 12.0806C13.793 11.4001 13.2417 10.8486 12.5615 10.8486C11.8809 10.8486 11.3296 11.4001 11.3296 12.0806L11.3296 12.6387C11.3296 13.3191 11.8809 13.8706 12.5615 13.8706C13.2412 13.8706 13.793 13.3191 13.793 12.6387Z" fill="#F0145A" fill-opacity="1.000000" fill-rule="nonzero"/>
	<path id="Vector" d="M14.6377 13.3201C14.3647 14.2134 13.5425 14.8694 12.5615 14.8694C11.5801 14.8694 10.7573 14.2134 10.4844 13.3201L2 13.3201C1.46436 13.3201 0.958496 13.1956 0.504395 12.9795L0.504395 18.613C0.504395 19.7129 1.4043 20.613 2.50439 20.613L22.6172 20.613C23.7173 20.613 24.6172 19.7129 24.6172 18.613L24.6172 12.98C24.1631 13.196 23.6572 13.3206 23.1221 13.3206L14.6377 13.3206L14.6377 13.3201Z" fill="#F0145A" fill-opacity="1.000000" fill-rule="nonzero"/>
	<path id="Vector" d="M23.0386 3.2041L18.2378 3.2041C17.9482 1.39111 16.3774 0 14.4839 0L10.6377 0C8.74414 0 7.17383 1.39111 6.8833 3.2041L2.0835 3.2041C0.9375 3.2041 0 4.104 0 5.2041L0 9.82056C0 10.925 0.895508 11.8206 2 11.8206L10.3901 11.8206C10.4185 11.2451 10.6655 10.728 11.0562 10.354C11.0679 10.3425 11.082 10.3335 11.0947 10.3225C11.1812 10.2429 11.271 10.168 11.3696 10.103C11.4043 10.0796 11.4443 10.0635 11.481 10.0425C11.562 9.99609 11.6421 9.94751 11.7295 9.91138C11.7979 9.88306 11.8721 9.86646 11.9438 9.84497C12.0059 9.82642 12.0649 9.802 12.1294 9.78906C12.269 9.7605 12.4136 9.74561 12.561 9.74561C12.709 9.74561 12.853 9.76099 12.9927 9.78906C13.0566 9.802 13.1157 9.82642 13.1777 9.84497C13.2495 9.86646 13.3237 9.88306 13.3921 9.91211C13.479 9.948 13.5586 9.99609 13.6396 10.0425C13.6763 10.064 13.7163 10.0801 13.752 10.1035C13.8506 10.168 13.9399 10.2429 14.0264 10.3225C14.0391 10.334 14.0537 10.343 14.0654 10.355C14.4565 10.729 14.7031 11.2461 14.7314 11.8215L23.1216 11.8215C24.2261 11.8215 25.1216 10.926 25.1216 9.82153L25.1216 5.20508C25.1221 4.104 24.1846 3.2041 23.0386 3.2041ZM8.80908 3.2041C9.06396 2.43359 9.78271 1.87207 10.6377 1.87207L14.4839 1.87207C15.3389 1.87207 16.0576 2.43359 16.3125 3.2041L8.80908 3.2041Z" fill="#F0145A" fill-opacity="1.000000" fill-rule="nonzero"/>
</svg>
