<svg width="22.729004" height="26.055420" viewBox="0 0 22.729 26.0554" fill="none" xmlns="http://www.w3.org/2000/svg" xmlns:xlink="http://www.w3.org/1999/xlink">
	<desc>
			Created with Pixso.
	</desc>
	<defs/>
	<path id="Vector" d="M22.478 3.33252C22.3091 3.16455 22.1099 3.08008 21.8799 3.08008C21.7656 3.08008 21.5239 3.17407 21.1572 3.35962C20.7896 3.54541 20.3994 3.75244 19.9888 3.9834C19.5776 4.21289 19.0903 4.4209 18.5283 4.60693C17.9668 4.79248 17.4468 4.88647 16.9683 4.88647C16.5264 4.88647 16.1367 4.80249 15.8003 4.63403C14.686 4.11206 13.7163 3.72241 12.8936 3.46558C12.0703 3.20898 11.1855 3.08008 10.2378 3.08008C8.60205 3.08008 6.73828 3.61206 4.64941 4.67407C4.21826 4.88892 3.90967 5.05542 3.70947 5.17749L3.51123 3.72192C3.95947 3.33252 4.24902 2.76489 4.24902 2.12451C4.24902 0.950928 3.29785 0 2.12451 0C0.951172 0 0 0.950928 0 2.12451C0 2.88989 0.40918 3.55542 1.01611 3.92944L3.88623 24.9746C3.97168 25.6011 4.50732 26.0554 5.12305 26.0554C5.1792 26.0554 5.23584 26.052 5.29346 26.0444C5.97754 25.9504 6.45654 25.321 6.36279 24.637L5.20947 16.1785C7.30273 15.1399 9.11279 14.6165 10.6362 14.6165C11.2827 14.6165 11.9131 14.7129 12.5273 14.908C13.1426 15.1035 13.6538 15.3154 14.061 15.5449C14.4678 15.7749 14.9487 15.988 15.501 16.1819C16.0547 16.377 16.6011 16.4746 17.1406 16.4746C18.5034 16.4746 20.1362 15.9609 22.0386 14.9346C22.2773 14.8105 22.4526 14.6885 22.563 14.5691C22.6733 14.4495 22.729 14.2795 22.729 14.0586L22.729 3.92993C22.729 3.70044 22.6455 3.50098 22.478 3.33252Z" fill="#F0145A" fill-opacity="1.000000" fill-rule="nonzero"/>
</svg>
