<svg width="24.826172" height="24.826904" viewBox="0 0 24.8262 24.8269" fill="none" xmlns="http://www.w3.org/2000/svg" xmlns:xlink="http://www.w3.org/1999/xlink">
	<desc>
			Created with Pixso.
	</desc>
	<defs/>
	<path id="Vector" d="M12.4131 0C5.56836 0 0 5.5686 0 12.4131C0 19.2581 5.56836 24.8269 12.4131 24.8269C19.2573 24.8269 24.8262 19.2581 24.8262 12.4131C24.8267 5.5686 19.2578 0 12.4131 0ZM19.2715 11.5056L19.2715 11.5061L15.6782 14.106L17.062 18.3359C17.084 18.4021 17.0957 18.4724 17.0957 18.5444C17.0957 18.9141 16.7964 19.2141 16.4268 19.2141C16.2798 19.2141 16.145 19.167 16.0352 19.0874L12.4136 16.468L8.79199 19.0874C8.68213 19.167 8.54688 19.2141 8.40039 19.2141C8.03027 19.2141 7.73096 18.9146 7.73096 18.5444C7.73096 18.4719 7.74316 18.4021 7.76514 18.3359L9.14941 14.106L5.55615 11.5061L5.55615 11.5056C5.38818 11.3845 5.27881 11.187 5.27881 10.9641C5.27881 10.5945 5.57812 10.2954 5.94824 10.2954L10.3965 10.2954L11.7739 6.08496C11.8579 5.81152 12.1123 5.61255 12.4141 5.61255C12.7148 5.61255 12.9702 5.81152 13.0537 6.08496L14.4312 10.2954L18.8794 10.2954C19.249 10.2954 19.5483 10.5945 19.5483 10.9641C19.5479 11.187 19.439 11.3845 19.2715 11.5056Z" fill="#F0145A" fill-opacity="1.000000" fill-rule="nonzero"/>
</svg>
